<?xml version="1.0" standalone="no"?>
<!DOCTYPE svg PUBLIC "-//W3C//DTD SVG 20010904//EN"
 "http://www.w3.org/TR/2001/REC-SVG-20010904/DTD/svg10.dtd">
<svg version="1.0" xmlns="http://www.w3.org/2000/svg"
 width="384.000000pt" height="384.000000pt" viewBox="0 0 384.000000 384.000000"
 preserveAspectRatio="xMidYMid meet">
<metadata>
Created by potrace 1.14, written by Peter Selinger 2001-2017
</metadata>
<g transform="translate(0.000000,384.000000) scale(0.100000,-0.100000)"
fill="#000000" stroke="none">
<path d="M1606 3804 c-37 -7 -91 -21 -120 -31 -28 -9 -53 -18 -56 -18 -5 -2
-46 -19 -82 -35 -13 -5 -32 -16 -43 -22 -10 -7 -51 -33 -89 -57 -97 -63 -273
-238 -324 -323 -9 -16 -20 -28 -24 -28 -4 0 -8 -4 -8 -10 0 -5 -15 -33 -33
-62 -56 -89 -130 -269 -130 -315 0 -7 -4 -13 -8 -13 -4 0 -5 -9 -2 -20 3 -11
1 -20 -4 -20 -5 0 -9 -16 -8 -35 1 -19 -1 -32 -5 -30 -12 7 -4 139 9 164 7 11
8 21 4 22 -4 0 1 4 12 9 15 6 16 9 4 9 -9 1 -16 7 -16 15 0 8 6 12 12 9 8 -2
12 5 11 19 -1 13 5 29 14 36 13 12 13 13 -1 9 -14 -5 -15 -2 -5 18 6 13 13 22
17 19 3 -2 5 8 3 21 -1 14 2 28 7 31 6 3 5 12 -3 22 -10 12 -10 14 0 8 8 -5
12 2 12 24 0 22 4 29 13 24 8 -5 8 -2 -2 9 -9 12 -10 17 -2 17 8 0 9 5 2 19
-6 10 -7 21 -3 25 10 11 10 116 -1 116 -5 0 -4 7 3 15 9 10 9 15 1 15 -6 0
-11 10 -11 22 0 32 -47 121 -72 137 -18 11 -20 11 -14 -4 3 -10 1 -25 -6 -33
-11 -13 -10 -15 3 -10 9 4 16 1 16 -8 0 -7 -5 -11 -11 -8 -6 3 -4 -1 6 -8 12
-11 14 -18 6 -32 -7 -13 -7 -17 0 -12 10 6 29 -48 24 -67 -1 -4 -4 -18 -6 -30
-3 -12 -5 -22 -6 -22 -1 0 -3 -7 -5 -15 -1 -8 -19 -49 -38 -90 -58 -127 -79
-174 -82 -185 -1 -5 -8 -23 -14 -40 -41 -99 -76 -210 -85 -273 -4 -27 -16 -42
-16 -20 0 9 -21 58 -46 109 -49 97 -126 189 -159 189 -17 0 -17 -1 2 -17 21
-19 20 -48 0 -37 -7 3 -4 -1 5 -9 10 -8 14 -18 10 -22 -4 -5 -2 -5 5 -1 7 4
10 14 7 24 -5 16 -5 16 6 0 8 -13 8 -24 -1 -40 -6 -13 -8 -20 -4 -16 12 11 34
-15 24 -28 -6 -7 -4 -16 5 -23 8 -7 12 -20 9 -28 -5 -12 -3 -14 7 -8 10 6 12
4 7 -8 -4 -10 -1 -17 6 -17 8 0 6 -4 -3 -10 -8 -5 -10 -10 -4 -10 7 0 14 -9
17 -20 3 -11 2 -18 -2 -15 -4 2 -8 -2 -8 -10 0 -8 5 -11 10 -8 6 4 8 0 4 -10
-3 -10 -3 -17 2 -17 5 0 7 -14 5 -31 -2 -16 0 -27 6 -24 5 3 7 -6 4 -19 -2
-14 0 -28 6 -31 6 -3 7 -17 4 -31 -4 -14 -2 -24 4 -24 6 0 9 -18 8 -41 -2 -22
0 -36 4 -29 5 8 9 5 13 -9 3 -12 0 -21 -6 -21 -7 0 -6 -4 2 -9 12 -8 12 -12 2
-24 -9 -12 -9 -17 0 -23 8 -5 10 -3 5 7 -4 8 0 5 8 -5 12 -14 13 -23 5 -33 -7
-8 -8 -13 -1 -13 5 0 13 -7 16 -16 3 -8 2 -12 -4 -9 -6 3 -10 1 -10 -4 0 -6 4
-11 9 -11 6 0 8 -9 6 -21 -3 -14 0 -19 8 -16 7 3 13 -3 13 -13 0 -10 -5 -16
-11 -14 -5 3 -1 -2 9 -10 11 -9 16 -16 12 -16 -5 0 -3 -7 4 -15 10 -12 10 -15
-1 -15 -8 0 -34 30 -57 65 -87 128 -191 226 -277 260 -37 14 -38 14 -20 0 11
-9 19 -21 17 -26 -1 -6 2 -8 8 -4 5 3 10 1 10 -5 0 -6 5 -8 10 -5 6 4 10 3 9
-2 -4 -21 2 -34 13 -27 7 5 8 3 3 -6 -6 -10 -11 -10 -20 4 -11 14 -13 15 -18
1 -4 -8 -1 -14 6 -12 7 1 11 -3 10 -10 -2 -7 4 -10 12 -7 11 5 13 2 8 -12 -4
-11 -3 -15 4 -11 5 4 15 -5 22 -19 9 -20 9 -24 -1 -19 -7 4 -6 1 2 -7 8 -7 16
-24 18 -38 1 -13 8 -28 15 -32 9 -6 8 -8 -3 -8 -12 0 -13 -2 -1 -9 8 -5 10
-14 6 -21 -6 -9 -4 -11 5 -5 10 6 12 3 8 -13 -4 -13 1 -27 13 -38 10 -9 19
-28 19 -41 0 -14 4 -21 10 -18 7 4 7 -3 0 -22 -10 -27 -9 -27 6 -8 16 20 16
20 9 -2 -4 -15 -2 -23 5 -23 7 0 10 -7 7 -15 -4 -8 -1 -17 5 -21 7 -5 8 -2 3
6 -5 9 -4 11 3 6 8 -5 9 -13 2 -26 -8 -15 -6 -17 10 -13 15 4 18 1 15 -16 -2
-13 5 -27 21 -40 13 -11 19 -21 13 -23 -13 -4 57 -78 74 -78 6 0 7 -3 4 -6 -4
-4 -15 -1 -24 7 -16 12 -15 11 1 -8 10 -13 23 -20 27 -17 5 3 9 -4 9 -15 0
-13 7 -21 17 -21 9 0 14 -3 10 -6 -8 -8 18 -34 35 -34 10 0 9 -3 -2 -11 -12
-9 -11 -10 6 -6 16 3 21 0 19 -12 -4 -27 15 -44 33 -29 13 10 14 10 8 1 -4 -8
-2 -13 4 -13 6 0 8 -5 4 -12 -6 -9 -3 -9 9 0 14 12 16 11 12 -7 -2 -11 1 -24
7 -27 7 -4 8 -2 4 4 -12 20 9 13 24 -8 15 -21 36 -28 24 -8 -4 7 -3 8 4 4 6
-4 9 -13 5 -21 -3 -10 1 -15 15 -15 11 0 26 -8 33 -17 13 -17 13 -17 -6 -3
-19 14 -19 14 -6 -3 10 -13 17 -15 27 -6 11 9 14 8 14 -5 0 -10 5 -14 10 -11
6 3 10 1 10 -4 0 -6 7 -11 16 -11 9 0 23 -8 32 -18 10 -10 14 -13 10 -7 -5 7
-2 12 7 12 7 0 14 -3 13 -6 -2 -20 3 -31 12 -26 6 4 10 -5 10 -20 0 -19 4 -26
14 -22 10 4 12 -1 9 -16 -4 -18 -3 -19 6 -7 9 12 11 10 11 -12 0 -14 6 -28 13
-31 6 -2 10 -7 7 -10 -3 -3 -19 0 -35 7 -17 8 -46 21 -65 29 -113 50 -348 263
-463 419 -33 46 -44 48 -41 8 1 -17 -3 -30 -9 -30 -8 0 -8 -3 -2 -8 16 -11 19
-46 3 -36 -11 6 -11 5 0 -8 7 -8 13 -34 15 -57 1 -22 4 -41 7 -41 5 0 10 -25
12 -60 0 -8 6 -21 12 -29 9 -12 8 -13 -4 -6 -12 6 -13 5 -2 -6 15 -17 16 -43
0 -33 -7 4 -8 3 -4 -5 4 -6 12 -8 18 -5 7 5 9 1 5 -9 -4 -10 -1 -17 5 -17 6 0
8 -3 5 -7 -4 -3 -2 -12 5 -20 9 -11 7 -12 -8 -6 -16 6 -17 5 -4 -9 8 -9 20
-13 25 -10 6 3 4 -2 -4 -11 -12 -15 -12 -17 1 -12 12 5 14 0 11 -19 -3 -15 -1
-26 6 -26 6 0 8 -7 4 -17 -4 -10 -2 -14 5 -9 6 3 13 2 17 -4 3 -5 1 -10 -5
-10 -6 0 -8 -5 -5 -10 4 -6 11 -7 17 -4 7 5 9 1 5 -9 -3 -9 1 -18 10 -21 9 -4
13 -14 10 -26 -3 -13 0 -20 10 -20 8 0 11 -4 8 -10 -3 -5 0 -10 8 -10 8 0 18
-7 21 -16 6 -15 4 -15 -11 -3 -14 11 -13 9 2 -13 16 -21 23 -24 34 -15 12 10
12 8 1 -13 -7 -14 -9 -22 -5 -18 4 4 18 -5 31 -19 12 -13 27 -22 33 -19 5 4
13 1 17 -5 4 -7 3 -9 -4 -5 -6 3 -13 2 -17 -4 -3 -5 -1 -10 5 -10 7 0 19 -8
28 -18 10 -10 13 -11 7 -2 -9 13 -8 13 8 1 9 -7 17 -19 17 -26 0 -7 8 -19 18
-26 16 -13 16 -13 2 5 -24 32 9 8 39 -26 19 -23 26 -26 38 -16 12 10 14 9 11
-7 -1 -11 2 -20 7 -20 6 0 15 -4 22 -8 6 -4 15 -2 19 4 5 8 3 9 -6 4 -9 -6
-11 -4 -6 4 6 9 12 9 25 -3 10 -9 21 -13 25 -9 4 5 7 3 6 -2 -5 -21 1 -29 10
-15 8 12 10 11 10 -7 0 -19 3 -21 31 -13 27 8 29 7 18 -6 -11 -14 -9 -16 16
-14 53 4 59 2 45 -15 -11 -13 -10 -14 4 -9 9 3 16 11 16 17 0 6 7 2 15 -10 15
-21 29 -24 51 -10 13 8 24 0 20 -16 -2 -7 -1 -9 1 -4 3 4 14 7 24 7 14 0 18
-4 13 -12 -5 -9 -2 -9 9 1 14 11 17 11 17 0 0 -12 2 -12 9 0 7 11 9 11 13 0 4
-11 9 -12 27 -1 22 13 44 17 24 4 -9 -6 -6 -11 8 -21 12 -7 19 -9 16 -4 -3 4
5 8 18 8 13 0 21 -4 17 -9 -3 -5 2 -7 11 -3 10 4 14 2 11 -7 -3 -7 1 -13 8
-14 55 -4 72 -11 80 -32 7 -19 11 -20 23 -10 13 11 14 10 9 -5 -5 -12 -4 -16
3 -12 6 4 19 -1 30 -11 10 -9 12 -12 3 -7 -13 9 -13 8 -1 -8 9 -11 22 -16 35
-12 12 3 15 2 9 -1 -7 -3 -13 -10 -13 -15 0 -6 4 -7 10 -4 5 3 10 -1 10 -9 0
-9 7 -16 16 -16 11 0 14 -5 10 -16 -5 -12 -2 -15 9 -10 9 3 13 2 10 -4 -3 -6
0 -10 7 -10 9 0 9 -3 -2 -10 -9 -6 -11 -10 -3 -10 7 0 10 -7 7 -15 -3 -8 -7
-36 -8 -63 -1 -26 -5 -53 -9 -59 -4 -6 -2 -15 4 -19 8 -4 9 -3 5 4 -4 7 -2 12
3 12 14 0 14 -27 1 -35 -16 -10 0 -27 17 -20 13 4 14 3 3 -10 -7 -8 -16 -15
-20 -15 -6 0 -44 73 -46 90 0 3 -6 19 -14 35 -33 75 -40 94 -40 102 0 17 -72
82 -118 108 -52 29 -146 61 -206 70 -42 6 -179 49 -209 66 -27 15 -31 5 -14
-30 13 -27 13 -29 -2 -23 -14 5 -14 3 -3 -11 8 -9 10 -22 6 -28 -4 -7 -3 -9 3
-6 6 4 16 -7 23 -23 7 -16 15 -28 19 -26 4 3 13 -5 21 -17 11 -19 11 -21 -1
-12 -8 6 -7 3 3 -7 10 -9 18 -19 18 -23 0 -13 64 -80 73 -77 5 1 6 -2 2 -8 -3
-5 -1 -10 4 -10 6 0 11 -7 11 -15 0 -8 5 -15 10 -15 6 0 10 -7 10 -16 0 -9 5
-12 12 -8 9 6 9 3 0 -9 -12 -14 -11 -16 8 -12 19 4 20 2 9 -13 -7 -9 -10 -14
-5 -10 10 8 36 -14 29 -24 -2 -4 3 -5 11 -2 9 3 16 1 16 -6 0 -6 6 -8 12 -4
11 6 11 4 0 -7 -15 -17 -16 -37 0 -21 9 9 21 2 50 -28 22 -22 37 -44 33 -50
-3 -6 0 -7 9 -4 10 4 27 -5 45 -24 22 -25 31 -28 41 -19 10 10 12 8 6 -7 -4
-13 -2 -17 7 -13 8 3 19 -3 26 -12 8 -10 24 -16 41 -15 24 2 28 -1 25 -20 -4
-20 -4 -21 10 -2 15 20 15 20 15 0 0 -16 2 -17 10 -4 8 12 10 12 10 1 0 -11 3
-11 17 0 9 8 14 9 10 2 -10 -16 14 -22 37 -10 16 8 18 6 12 -8 -5 -15 -4 -16
8 -6 11 9 16 9 22 0 5 -8 3 -9 -6 -4 -8 5 -11 4 -6 -3 3 -6 15 -9 26 -7 11 2
20 0 20 -6 0 -5 5 -9 11 -9 5 0 8 4 5 8 -3 5 2 9 10 9 10 0 11 -4 4 -11 -13
-13 -13 -26 1 -26 6 0 24 -9 40 -21 16 -11 34 -17 41 -13 9 5 8 2 -1 -10 -8
-9 -9 -16 -3 -14 6 2 17 -6 26 -17 15 -19 15 -19 10 5 -4 21 -2 20 8 -5 12
-28 17 -30 71 -33 57 -4 64 1 58 41 0 4 4 7 10 7 8 0 7 6 -2 17 -12 14 -12 16
0 8 11 -6 13 -4 7 10 -5 15 -4 16 9 5 13 -11 14 -10 9 5 -5 13 -4 16 4 11 8
-5 10 -1 5 10 -5 13 -3 16 10 11 9 -3 21 1 29 11 9 11 10 14 1 8 -22 -12 -14
10 9 30 19 16 20 16 9 1 -12 -15 -12 -17 3 -11 9 3 16 13 16 21 0 8 4 12 8 9
4 -2 14 -1 22 5 13 7 13 9 0 9 -13 0 -13 1 0 10 19 12 33 13 26 2 -3 -5 1 -9
8 -9 8 0 12 7 9 14 -3 8 0 13 8 11 8 -2 13 4 11 12 -3 12 -1 13 10 2 10 -10
16 -8 30 10 16 21 18 21 13 3 -5 -16 -3 -16 6 3 7 12 16 22 21 22 5 0 6 -6 2
-12 -6 -10 -5 -10 8 -1 8 7 19 9 23 5 5 -4 5 -1 0 7 -6 11 -2 13 18 9 19 -4
24 -1 19 10 -3 10 -1 13 6 8 7 -4 12 -2 12 6 0 9 3 9 10 -2 8 -12 10 -12 10
-1 0 8 7 11 20 8 11 -3 18 -2 15 3 -3 4 2 13 10 20 13 11 15 10 9 -6 -5 -17
-4 -17 8 -3 7 9 21 15 31 13 9 -1 17 4 17 12 0 12 4 12 21 4 11 -7 23 -9 27
-6 3 3 0 6 -7 6 -7 0 -9 5 -6 10 5 8 12 7 23 -2 12 -10 14 -10 8 0 -7 11 12
18 38 13 5 -1 6 6 2 15 -6 15 -4 15 11 3 14 -12 16 -12 11 1 -4 11 2 15 25 16
17 1 33 7 35 13 3 9 8 9 20 -1 13 -11 15 -10 9 4 -3 10 -2 20 3 23 6 4 10 1
10 -5 0 -6 5 -8 10 -5 6 4 8 11 5 16 -3 5 0 6 8 3 8 -3 18 0 23 7 4 7 3 10 -3
6 -5 -3 -10 0 -10 7 0 8 6 12 13 9 7 -2 22 5 33 16 25 25 16 28 -13 3 -20 -17
-20 -16 -6 3 8 11 21 24 28 28 6 4 12 19 12 32 0 14 5 25 11 25 6 0 9 8 7 17
-2 10 3 24 12 31 8 8 9 11 3 7 -16 -7 -17 11 -3 20 8 5 8 11 0 20 -8 10 -8 15
0 20 8 5 8 11 1 19 -6 7 -8 15 -6 18 11 10 14 48 4 48 -6 0 -6 7 1 19 5 11 6
22 2 25 -8 5 -8 23 -3 71 1 6 6 3 11 -5 8 -13 11 -12 16 6 4 16 11 20 25 17
13 -4 19 -1 17 7 -2 7 5 14 15 15 9 2 17 0 17 -3 0 -10 -43 -37 -53 -34 -5 1
-6 -12 -2 -30 12 -54 13 -98 1 -99 -6 0 -3 -4 8 -8 17 -7 17 -8 2 -24 -10 -9
-13 -17 -7 -17 12 0 7 -34 -12 -80 -6 -14 -11 -28 -11 -32 -1 -3 -4 -10 -9
-14 -4 -4 -7 -17 -7 -30 0 -16 5 -21 18 -20 9 2 21 -2 25 -8 4 -6 5 1 1 17 -4
17 -2 27 6 27 6 0 8 -5 4 -11 -4 -7 -1 -10 7 -7 8 3 13 12 13 20 -1 9 7 15 20
14 14 -1 21 5 20 16 -1 10 1 17 5 16 3 0 15 0 26 1 17 1 18 3 5 11 -13 9 -7
14 13 11 6 -1 11 14 9 30 -1 4 5 6 13 5 8 0 14 2 15 6 2 19 50 59 62 52 11 -6
10 -5 0 8 -11 14 -10 18 6 27 11 6 23 7 28 3 5 -4 2 1 -6 11 -11 16 -11 18 1
15 8 -2 13 3 11 11 -2 8 3 11 12 8 10 -4 13 -1 10 7 -3 8 0 17 7 22 8 5 10 3
4 -6 -5 -8 -4 -11 3 -6 6 4 8 14 5 23 -5 12 -2 15 10 10 9 -3 19 -1 23 5 4 7
3 8 -4 4 -7 -4 -12 -3 -12 1 0 5 9 14 20 21 12 7 18 17 15 22 -3 5 4 11 15 15
12 4 23 18 27 36 3 16 8 27 12 24 4 -2 13 6 20 18 11 18 11 20 0 10 -35 -34
-27 3 11 51 14 18 14 18 -10 6 -14 -7 -36 -22 -50 -32 -40 -29 -174 -81 -178
-68 -3 8 -8 8 -18 -1 -7 -6 -19 -9 -26 -6 -8 3 -6 6 5 6 10 1 16 5 13 10 -4 5
2 8 11 7 10 -2 24 4 31 13 11 14 11 14 6 -4 -5 -18 -4 -18 13 3 13 16 22 19
29 12 8 -8 15 -6 25 7 13 17 13 17 -6 3 -18 -14 -19 -14 -7 2 7 9 22 15 33 13
12 -2 23 2 26 11 5 13 8 13 15 2 7 -9 9 -7 5 8 -3 13 1 21 9 21 7 0 11 -5 7
-10 -3 -5 6 -1 21 8 14 9 24 21 21 25 -3 4 3 7 12 6 10 0 18 5 18 13 0 8 6 16
14 19 9 3 11 0 6 -8 -5 -8 -4 -11 3 -6 6 4 9 13 6 20 -3 8 0 17 7 22 8 5 10 3
4 -7 -8 -12 -6 -12 8 0 9 7 14 17 11 22 -3 5 2 9 11 9 9 0 13 5 10 10 -3 6 -1
10 6 10 7 0 9 3 6 7 -4 3 1 12 11 20 11 10 12 12 2 8 -10 -4 -9 -2 3 8 9 8 17
19 17 24 0 5 11 19 25 31 14 13 23 27 20 32 -3 5 4 19 15 30 17 17 19 24 10
35 -10 12 -8 13 10 10 19 -4 20 -2 8 12 -11 15 -11 16 5 10 15 -6 16 -4 7 13
-9 16 -7 22 5 26 12 5 13 9 4 20 -10 12 -9 13 5 8 12 -5 16 0 16 18 0 13 6 30
13 37 10 11 9 13 -3 7 -8 -4 -4 1 9 12 16 13 20 21 12 26 -6 4 -11 15 -11 24
0 12 3 13 8 5 4 -7 8 4 8 25 l0 37 -61 -61 c-33 -33 -75 -69 -92 -79 -18 -11
-33 -23 -33 -28 0 -4 -4 -5 -10 -2 -5 3 -10 1 -10 -5 0 -7 -7 -10 -15 -6 -8 3
-14 1 -12 -5 2 -11 -73 -58 -138 -86 -44 -19 -49 -19 -52 -3 -1 6 1 6 3 1 6
-12 54 7 54 21 0 5 5 6 12 2 8 -5 9 -2 4 11 -6 16 -4 16 11 4 15 -12 16 -12
10 3 -3 10 -1 20 5 24 7 4 8 3 4 -4 -4 -7 -1 -12 9 -12 10 0 13 5 9 12 -5 8
-2 9 9 5 11 -4 17 -1 17 8 0 8 3 14 8 13 9 -4 58 31 54 38 -2 3 0 9 4 12 4 4
4 1 0 -6 -4 -6 -3 -12 3 -12 14 0 42 30 36 39 -2 5 7 7 21 5 20 -2 23 0 14 11
-8 10 -7 13 7 11 10 0 18 4 18 11 0 6 4 15 9 20 5 5 6 3 2 -4 -4 -7 -2 -13 3
-13 6 0 11 10 11 23 0 15 3 18 9 9 6 -10 11 -9 22 4 9 12 10 15 2 10 -7 -4
-13 -2 -13 3 0 6 7 11 15 11 9 0 18 8 21 18 13 39 28 62 42 62 11 0 12 3 3 14
-14 17 2 32 21 20 7 -4 8 -3 4 5 -4 6 -2 18 4 26 7 8 9 15 5 15 -4 0 -3 6 3
13 6 6 10 14 10 17 0 24 16 79 22 75 5 -3 6 5 2 17 -3 14 -1 19 6 14 8 -5 10
-1 5 10 -4 12 -3 15 5 10 8 -5 10 -2 6 9 -4 8 0 23 7 32 10 12 10 15 2 9 -7
-4 -13 -3 -13 3 0 5 4 12 10 16 5 3 6 13 3 22 -5 12 -3 14 8 8 11 -7 12 -6 2
7 -7 8 -10 18 -7 21 4 4 8 26 9 49 l3 43 -22 -46 c-47 -103 -185 -248 -217
-228 -12 7 -12 9 1 10 8 1 18 1 23 0 4 0 7 8 7 19 0 11 6 19 13 18 6 -2 11 3
9 11 -2 9 3 11 14 7 15 -6 15 -4 3 11 -12 14 -12 16 0 8 11 -6 13 -4 8 7 -3
10 0 15 10 14 9 0 17 9 19 24 3 14 11 30 19 36 17 12 21 29 5 19 -6 -3 -7 1
-4 9 3 9 10 14 14 11 4 -3 10 2 13 10 4 10 1 12 -11 8 -12 -4 -11 0 6 16 27
26 28 35 5 27 -12 -4 -11 0 5 12 18 14 20 20 10 30 -9 9 -9 12 0 12 7 0 10 12
8 31 -2 19 0 29 8 26 7 -3 10 10 9 39 -1 25 2 42 6 40 4 -3 8 1 8 9 0 8 -5 15
-10 15 -6 0 -5 5 1 13 5 6 9 36 8 64 0 29 3 55 9 57 5 3 4 5 -3 5 -9 1 -10 6
-2 20 5 11 6 22 2 25 -4 2 -8 25 -7 50 0 25 -2 46 -5 46 -3 0 -7 12 -8 28 -5
69 -67 227 -99 254 -12 10 -14 9 -12 -7 2 -11 0 -26 -5 -34 -6 -10 -5 -12 2
-7 15 9 15 1 1 -26 -9 -16 -8 -19 2 -13 9 6 11 2 7 -13 -4 -12 -2 -25 4 -28 6
-4 5 -10 -3 -15 -9 -6 -10 -12 -4 -16 12 -9 13 -73 2 -90 -5 -8 -3 -13 3 -13
6 0 8 -5 4 -11 -3 -6 -8 -25 -9 -42 -1 -18 -8 -52 -14 -77 -6 -25 -13 -53 -16
-62 -9 -39 -67 -148 -94 -177 -15 -16 -27 -32 -24 -34 2 -2 -5 -10 -14 -18
-14 -10 -16 -10 -6 0 6 7 9 20 6 27 -3 8 -1 14 5 14 6 0 14 15 17 33 4 17 11
37 16 43 6 7 11 25 12 42 1 16 5 28 9 26 4 -3 6 8 4 25 -2 20 2 32 12 36 11 4
12 9 4 17 -7 7 -7 19 -2 34 5 13 5 26 1 29 -5 3 -5 21 -1 40 4 19 5 35 0 35
-4 0 -6 15 -5 33 1 17 -3 38 -8 45 -5 7 -7 15 -4 18 6 7 -28 141 -43 166 -6
10 -10 25 -10 33 0 23 -83 178 -136 253 -55 77 -184 210 -184 190 0 -8 5 -19
12 -26 8 -8 8 -15 -2 -29 -12 -15 -12 -16 0 -5 14 12 39 18 27 5 -4 -3 -2 -12
4 -19 7 -8 7 -14 0 -19 -13 -8 9 -45 26 -45 7 0 13 -4 13 -10 0 -5 -6 -8 -12
-6 -7 1 -10 1 -5 -1 4 -3 4 -10 1 -15 -4 -7 -2 -8 4 -4 7 4 12 2 12 -4 0 -6 5
-8 11 -4 7 4 6 -2 -2 -17 -11 -22 -11 -23 5 -10 14 12 16 12 10 -4 -5 -13 -4
-16 4 -11 7 4 12 2 12 -3 0 -6 -5 -11 -12 -11 -6 0 -3 -7 8 -16 10 -8 12 -12
4 -8 -8 4 -5 -3 8 -15 23 -22 30 -37 12 -26 -17 10 -11 -7 8 -22 16 -14 16
-14 -3 -9 -18 6 -18 5 2 -11 16 -13 21 -25 17 -39 -3 -12 -1 -25 5 -28 6 -4
11 -13 11 -19 0 -7 -4 -6 -10 3 -5 8 -10 11 -10 5 0 -5 4 -17 10 -25 6 -9 5
-17 -3 -22 -8 -5 -6 -8 6 -8 10 0 16 -4 13 -8 -3 -5 -6 -35 -7 -68 -2 -67 -17
-154 -30 -170 -5 -6 -6 -13 -3 -17 11 -10 -77 -177 -123 -235 -61 -75 -81 -94
-93 -87 -6 3 -10 16 -10 28 -1 18 -5 14 -25 -18 -71 -116 -223 -222 -534 -372
-311 -149 -364 -177 -411 -220 -62 -56 -123 -176 -123 -245 -1 -45 -6 -46 -40
-13 -34 35 -64 102 -65 148 -1 32 1 38 15 33 13 -5 14 -4 3 9 -9 11 -9 15 -1
15 7 0 10 4 7 9 -3 5 1 12 10 15 12 5 13 10 5 19 -8 10 -3 21 18 45 16 17 26
33 23 36 -5 6 14 10 31 7 5 -1 6 3 2 8 -3 6 -13 8 -23 5 -9 -2 -7 1 6 8 19 9
28 9 44 -1 11 -7 17 -8 14 -3 -3 5 9 10 27 11 53 1 67 4 67 13 0 4 -5 8 -12 8
-6 0 -8 3 -5 6 4 4 14 1 22 -6 9 -7 15 -9 14 -4 -4 21 2 28 11 14 7 -11 10
-11 10 -2 0 7 4 10 10 7 5 -3 7 0 4 8 -3 8 5 19 18 25 l23 12 -22 -6 c-13 -3
-23 -1 -23 5 0 6 4 11 9 11 5 0 11 9 14 20 5 20 -7 21 -59 5 -7 -2 -21 6 -32
18 -22 24 -64 132 -54 141 3 3 0 6 -6 6 -6 0 -13 12 -16 28 -9 39 -74 121
-121 153 -22 15 -42 27 -45 27 -43 -3 -60 5 -85 45 -46 68 -156 160 -173 143
-9 -9 -10 -29 -2 -36 22 -19 38 -82 36 -140 -2 -36 2 -73 7 -84 6 -13 5 -21
-3 -26 -9 -6 -9 -9 -1 -11 7 -3 13 -14 14 -27 1 -12 6 -21 12 -18 6 2 11 -6
11 -18 -1 -12 4 -20 12 -18 10 2 10 -2 1 -19 -9 -18 -9 -21 3 -17 9 4 14 -1
15 -14 2 -27 12 -35 23 -18 17 27 2 -75 -18 -121 -11 -25 -45 -74 -76 -108
-30 -35 -68 -83 -85 -107 l-29 -45 -31 45 c-46 66 -163 182 -354 350 -50 44
-75 76 -97 122 -27 56 -46 150 -42 209 1 11 2 35 3 52 1 22 5 30 13 26 6 -4 5
1 -3 10 -7 9 -10 17 -5 17 5 0 9 24 9 54 0 30 -2 53 -6 50 -4 -2 -21 -29 -39
-60 -32 -58 -43 -62 -47 -16 -6 70 -12 112 -17 121 -3 5 0 12 6 14 10 4 10 6
1 6 -9 1 -10 8 -3 26 5 14 6 25 2 25 -4 0 -8 9 -8 20 0 11 4 20 9 20 5 0 4 7
-3 15 -7 8 -8 15 -3 15 5 0 8 18 6 40 -2 27 1 40 10 40 7 0 8 3 2 8 -15 10
-18 35 -4 26 8 -5 10 -2 6 8 -3 9 0 21 6 28 9 10 9 11 0 6 -7 -4 -9 1 -6 14 3
11 10 17 17 13 6 -4 5 1 -3 10 -9 11 -10 17 -2 17 6 0 11 10 11 23 0 13 6 29
13 36 9 11 9 12 0 7 -9 -5 -11 -2 -7 8 3 9 10 14 14 11 4 -3 11 2 14 11 9 24
7 36 -6 28 -7 -4 -8 -3 -4 4 4 7 15 12 24 13 13 0 13 2 3 6 -10 4 -8 9 10 19
15 8 18 14 9 14 -10 0 -7 7 10 21 14 11 19 18 13 14 -7 -3 -13 -1 -13 4 0 6 7
11 15 11 8 0 15 7 15 15 0 8 5 15 10 15 6 0 10 5 10 11 0 5 -5 7 -12 3 -7 -4
-8 -3 -4 5 4 6 11 9 16 6 4 -3 14 3 21 12 12 14 12 16 0 8 -10 -6 -12 -4 -7 4
5 7 15 10 23 6 14 -5 14 -3 2 12 -8 9 -9 14 -3 10 7 -4 15 1 18 10 6 15 8 15
16 3 6 -8 10 -10 10 -5 0 6 -5 16 -11 22 -7 7 -4 10 13 9 15 -1 22 4 20 13 -2
9 3 11 14 7 15 -6 15 -4 3 10 -12 15 -11 16 9 10 17 -6 21 -4 16 9 -4 9 -3 15
2 14 21 -4 34 2 34 16 0 9 6 12 17 8 13 -5 15 -2 10 11 -4 9 -3 15 2 11 5 -3
11 -2 14 2 2 5 2 1 0 -7 -2 -11 0 -11 11 3 7 9 19 17 26 17 7 0 10 7 7 15 -5
11 -1 12 19 5 14 -6 23 -6 20 -1 -7 10 42 33 55 26 5 -4 9 3 9 15 0 12 5 18
10 15 6 -4 7 -12 3 -18 -5 -8 -2 -8 9 0 8 7 17 11 20 8 2 -3 5 2 5 10 0 12 -3
12 -16 2 -14 -11 -14 -10 -2 6 10 13 17 14 27 6 9 -7 19 -7 32 0 11 6 22 7 26
4 3 -3 6 -1 6 6 0 7 3 10 8 7 4 -2 16 3 27 11 14 11 16 17 8 20 -26 9 -12 21
32 27 25 4 45 10 45 14 0 12 -29 10 -104 -4z m4 -34 c0 -5 0 -13 0 -17 0 -7
-8 -8 -41 -4 -5 0 -7 6 -3 12 4 8 9 7 15 -2 7 -11 9 -10 9 4 0 9 5 17 10 17 6
0 10 -4 10 -10z m-70 -20 c-8 -5 -19 -10 -25 -10 -5 0 -3 5 5 10 8 5 20 10 25
10 6 0 3 -5 -5 -10z m20 -20 c-8 -5 -19 -10 -25 -10 -5 0 -3 5 5 10 8 5 20 10
25 10 6 0 3 -5 -5 -10z m-1240 -830 c0 -5 -2 -10 -4 -10 -3 0 -8 5 -11 10 -3
6 -1 10 4 10 6 0 11 -4 11 -10z m30 -636 c0 -8 -19 -13 -24 -6 -3 5 1 9 9 9 8
0 15 -2 15 -3z m5 -24 c-3 -5 0 -10 7 -10 9 0 9 -3 -2 -10 -10 -6 -11 -10 -3
-10 7 0 27 -30 45 -67 17 -38 37 -71 42 -75 6 -4 8 -8 3 -8 -11 0 22 -60 33
-60 6 0 10 -6 10 -12 -1 -17 -60 52 -60 69 0 7 -4 13 -9 13 -11 0 -71 117 -75
146 -3 19 1 34 10 34 3 0 2 -4 -1 -10z m633 -2 c4 -46 16 -66 28 -47 5 8 3 10
-6 4 -9 -5 -11 -4 -6 4 12 19 23 4 21 -33 0 -19 2 -34 5 -34 23 2 31 -4 26
-18 -5 -12 -2 -15 10 -10 11 4 15 2 11 -8 -4 -10 -1 -13 9 -9 10 4 12 0 7 -13
-4 -12 -3 -15 5 -10 7 4 12 2 12 -5 0 -9 3 -9 14 0 12 10 13 8 9 -8 -4 -17 -1
-21 18 -21 20 0 21 -2 9 -11 -12 -9 -11 -10 7 -6 15 3 20 1 16 -9 -3 -8 1 -14
11 -14 9 0 16 -5 16 -11 0 -5 4 -7 10 -4 6 3 7 -1 4 -9 -4 -11 0 -16 14 -16
11 0 26 -8 33 -17 13 -17 13 -17 -5 -3 -18 14 -18 14 -6 -7 8 -12 20 -19 28
-15 10 3 13 1 8 -6 -4 -7 -3 -12 1 -12 15 0 44 -58 33 -65 -5 -3 -15 -3 -21 0
-5 4 -4 -8 4 -27 8 -18 13 -45 13 -60 -1 -17 4 -28 11 -28 7 0 13 -5 13 -11 0
-5 -5 -7 -11 -3 -7 4 -10 1 -7 -7 3 -8 10 -13 16 -12 5 1 8 -7 4 -19 -3 -14
-1 -19 6 -14 7 4 12 4 13 -1 0 -4 2 -19 5 -33 l4 -25 -21 25 -21 25 4 -47 c3
-26 1 -45 -4 -42 -4 3 -8 0 -8 -5 0 -6 5 -11 11 -11 8 0 7 -6 -2 -17 -10 -11
-10 -14 -1 -9 8 5 12 0 12 -16 0 -13 5 -29 12 -36 8 -8 8 -15 -3 -28 -9 -12
-10 -15 -1 -10 8 5 12 -1 12 -18 0 -14 5 -26 11 -26 5 0 7 -5 4 -10 -4 -7 -19
-4 -41 9 l-35 21 4 -25 c1 -13 6 -27 10 -31 4 -4 1 -14 -6 -22 -8 -10 -8 -13
-1 -9 12 7 29 -21 19 -31 -3 -3 -5 0 -5 7 0 7 -4 10 -9 6 -26 -16 -221 99
-221 131 0 8 -4 13 -9 10 -5 -3 -16 5 -25 19 -10 15 -12 26 -6 30 6 4 9 1 8
-7 -2 -7 2 -12 9 -11 8 2 10 -4 6 -14 -4 -11 -3 -14 5 -9 7 4 15 0 18 -9 4 -9
13 -14 20 -11 8 3 13 2 13 -2 -3 -16 2 -23 11 -17 7 4 7 13 0 25 -9 17 -8 18
7 13 12 -5 6 8 -17 36 -78 96 -159 206 -177 240 -10 20 -22 39 -28 44 -6 4 -5
10 4 16 17 11 53 -8 44 -23 -3 -5 -1 -6 5 -2 8 5 5 22 -10 59 -20 51 -46 127
-53 157 -2 8 -8 27 -14 43 -8 19 -7 27 0 27 8 0 7 5 -1 15 -9 10 -9 15 -1 15
20 0 26 -4 23 -16 -1 -6 5 -15 14 -18 13 -5 14 -9 3 -22 -10 -12 -10 -15 2
-12 8 2 17 8 21 13 5 6 8 6 8 -2 0 -7 -8 -16 -17 -22 -16 -9 -15 -10 4 -8 12
0 20 3 18 5 -2 3 0 13 5 23 6 11 6 20 1 24 -6 3 -9 13 -9 23 1 27 -10 90 -17
102 -3 5 0 10 7 10 8 0 9 3 3 8 -17 12 -9 82 9 82 1 0 3 -6 4 -12z m-498 -48
c0 -5 -4 -10 -10 -10 -5 0 -10 5 -10 10 0 6 5 10 10 10 6 0 10 -4 10 -10z m14
-36 c3 -8 2 -12 -4 -9 -6 3 -10 10 -10 16 0 14 7 11 14 -7z m2436 -34 c0 -5
-5 -10 -11 -10 -5 0 -7 5 -4 10 3 6 8 10 11 10 2 0 4 -4 4 -10z m-45 -29 c-3
-6 -11 -11 -16 -11 -5 0 -4 6 3 14 14 16 24 13 13 -3z m18 -22 c-35 -59 -114
-128 -168 -147 -18 -6 -23 -11 -12 -11 12 -1 16 -5 11 -13 -4 -7 2 -4 14 6 12
11 22 16 22 12 0 -4 10 -2 21 5 15 8 19 8 15 0 -4 -6 -2 -11 3 -11 6 0 11 -5
11 -11 0 -8 -5 -8 -15 1 -12 10 -20 9 -40 -4 -14 -9 -25 -20 -25 -23 0 -4 5
-2 12 5 16 16 31 15 22 0 -5 -9 -2 -8 9 1 10 8 20 11 24 8 3 -4 12 -2 20 4 7
6 13 8 13 3 0 -4 12 3 27 17 14 13 23 18 18 10 -5 -9 -4 -12 3 -7 7 4 12 14
12 21 0 9 6 12 17 8 13 -5 15 -2 10 13 -7 18 -6 18 7 1 25 -32 -16 -130 -75
-183 -32 -29 -106 -69 -152 -84 -31 -10 -36 -14 -26 -26 6 -7 16 -11 22 -7 6
3 7 1 3 -6 -4 -6 -11 -9 -16 -6 -5 3 -12 1 -15 -5 -4 -6 -2 -9 4 -8 5 2 17 -6
25 -17 8 -11 16 -15 16 -8 0 7 7 10 15 7 8 -4 12 -11 8 -18 -4 -6 2 -4 12 4
15 12 17 12 10 1 -6 -11 -4 -13 10 -7 18 7 18 6 1 -13 -10 -11 -21 -20 -25
-19 -3 1 -19 -5 -36 -12 -49 -21 -142 -15 -216 13 -93 35 -169 27 -229 -26
-13 -12 -19 -15 -12 -6 6 9 9 19 5 22 -3 4 1 7 11 7 9 0 14 5 11 10 -3 6 -1
10 6 10 6 0 9 8 6 20 -3 14 3 29 19 45 32 32 30 37 -7 21 -50 -21 -125 -92
-156 -146 -15 -28 -31 -50 -35 -50 -5 0 -8 -9 -8 -20 0 -11 -4 -20 -9 -20 -4
0 -8 13 -7 30 1 16 5 30 10 30 5 0 3 6 -3 14 -9 11 -8 18 4 30 11 10 12 16 4
16 -9 0 -8 4 1 15 10 12 10 15 -1 16 -10 0 -11 2 -1 6 6 2 10 9 6 14 -3 5 -1
9 4 9 5 0 8 10 7 23 -2 12 6 29 17 37 10 9 20 26 21 37 1 17 4 20 15 11 10 -9
12 -8 10 3 -2 8 4 13 16 12 13 -1 15 2 7 10 -6 6 -11 16 -11 22 0 5 4 4 8 -3
7 -9 15 -7 35 12 14 13 28 21 32 18 3 -3 8 4 12 16 3 12 13 22 23 22 9 0 29 9
42 20 14 10 28 16 32 12 4 -3 4 1 0 11 -3 10 -1 17 5 17 6 0 11 -6 11 -12 1
-7 7 -2 15 12 9 16 15 19 15 10 1 -10 5 -7 12 7 10 21 12 22 24 5 12 -16 13
-15 9 4 -3 18 0 21 17 16 13 -3 24 1 30 11 5 10 15 14 25 10 10 -4 14 -2 10 4
-7 10 -2 12 53 16 25 1 36 7 38 21 3 14 6 15 12 6 9 -15 33 -3 27 14 -3 6 4
12 14 12 14 0 16 -3 6 -15 -10 -12 -9 -13 11 -2 12 6 22 17 22 24 0 7 4 6 10
-3 8 -12 10 -12 11 5 0 11 3 14 6 8 3 -10 10 -10 26 -1 12 6 22 10 22 9 0 -1
8 1 17 4 10 4 16 11 13 15 -3 5 3 6 13 3 10 -2 24 3 31 11 23 28 33 17 14 -15z
m-263 -79 c0 -5 -5 -10 -11 -10 -5 0 -7 5 -4 10 3 6 8 10 11 10 2 0 4 -4 4
-10z m894 -25 c-10 -8 -23 -15 -28 -15 -6 0 -1 7 10 15 10 8 23 15 28 15 6 0
1 -7 -10 -15z m-3023 -12 c13 -17 13 -17 -6 -3 -11 8 -22 16 -24 17 -2 2 0 3
6 3 6 0 17 -8 24 -17z m-91 -23 c0 -5 -2 -10 -4 -10 -3 0 -8 5 -11 10 -3 6 -1
10 4 10 6 0 11 -4 11 -10z m2432 -22 c-7 -7 -12 -8 -12 -2 0 14 12 26 19 19 2
-3 -1 -11 -7 -17z m848 -22 c0 -3 -4 -8 -10 -11 -5 -3 -10 -1 -10 4 0 6 5 11
10 11 6 0 10 -2 10 -4z m-1340 -20 c0 -3 -4 -8 -10 -11 -5 -3 -10 -1 -10 4 0
6 5 11 10 11 6 0 10 -2 10 -4z m-645 -54 c-3 -3 -11 0 -18 7 -9 10 -8 11 6 5
10 -3 15 -9 12 -12z m-375 -7 c0 -8 -4 -15 -10 -15 -5 0 -10 7 -10 15 0 8 5
15 10 15 6 0 10 -7 10 -15z m-417 -12 c-3 -7 -6 -13 -8 -13 -2 0 -5 6 -8 13
-3 8 1 14 8 14 7 0 11 -6 8 -14z m784 -8 c0 -8 -6 -16 -14 -19 -13 -5 -18 15
-6 27 11 11 20 8 20 -8z m-7 -35 c0 -4 -3 -10 -7 -14 -4 -3 -8 -12 -9 -19 -5
-34 -14 -77 -27 -127 -7 -31 -11 -62 -9 -69 3 -8 1 -11 -4 -8 -5 3 -9 -16 -8
-41 0 -26 -3 -52 -8 -59 -6 -7 -4 -14 3 -18 8 -6 7 -10 -2 -16 -12 -7 -12 -9
0 -9 11 0 11 -3 0 -17 -12 -14 -12 -16 0 -8 11 6 13 4 8 -9 -4 -11 -3 -15 4
-11 6 4 17 -1 25 -11 14 -18 14 -18 4 4 -8 17 -8 22 2 22 10 0 10 2 1 8 -9 5
-8 11 0 23 10 13 12 6 13 -37 1 -29 -2 -52 -5 -50 -3 2 -5 -15 -5 -37 1 -23
-3 -50 -8 -60 -9 -17 -7 -17 14 -6 21 11 22 11 10 -4 -11 -13 -10 -15 7 -10
13 3 18 10 14 21 -4 9 -2 13 4 9 6 -4 14 0 17 9 5 12 2 15 -11 10 -10 -4 -5 5
11 19 17 14 23 25 15 25 -12 0 -12 2 0 9 8 5 11 16 8 24 -4 10 0 14 11 13 12
-2 16 -15 17 -54 1 -28 -2 -49 -5 -47 -4 2 -7 -2 -7 -10 0 -8 4 -12 9 -9 7 5
5 -20 -7 -91 -2 -11 -11 -40 -20 -65 -9 -25 -19 -53 -22 -62 -3 -9 -11 -19
-18 -22 -26 -9 -134 128 -180 228 -31 69 -36 87 -38 143 -1 22 -5 39 -9 36
-11 -6 -10 5 2 27 7 13 7 21 -1 26 -8 4 -7 9 2 15 10 6 11 9 2 9 -7 0 -13 5
-13 11 0 5 5 7 11 3 7 -4 7 1 -1 16 -8 15 -8 20 -1 16 11 -7 15 4 12 37 -1 9
4 17 11 17 9 0 9 3 -2 10 -12 8 -12 10 -1 10 10 0 11 3 2 14 -9 10 -7 17 6 27
16 13 17 12 4 -3 -7 -10 -9 -18 -3 -18 16 0 24 33 10 42 -11 6 -10 8 0 8 8 0
10 5 6 13 -4 6 2 4 13 -5 14 -13 19 -28 16 -50 -2 -18 0 -28 3 -21 3 7 11 11
17 9 7 -1 9 -1 5 1 -14 8 -8 25 6 20 11 -4 13 0 11 15 -3 12 0 27 6 34 6 7 8
18 4 23 -3 6 0 8 8 5 8 -3 18 0 23 7 4 8 3 10 -4 5 -7 -4 -12 -2 -12 3 0 6 5
11 11 11 8 0 7 5 -1 15 -11 13 -10 14 5 9 13 -5 16 -4 11 4 -4 7 -1 12 6 13
10 0 10 2 -1 6 -9 4 -10 7 -2 13 15 9 41 9 41 0z m-128 -74 c7 4 7 0 0 -12 -5
-11 -7 -26 -5 -34 3 -9 -2 -7 -12 5 -9 11 -11 21 -6 23 5 2 9 9 7 15 -1 7 -1
9 1 4 3 -4 9 -4 15 -1z m1633 -236 c-3 -5 -12 -10 -18 -10 -7 0 -6 4 3 10 19
12 23 12 15 0z m-2459 -137 c-7 -8 56 -63 66 -57 4 3 7 0 6 -8 -2 -8 6 -13 19
-12 12 1 22 -1 21 -5 -2 -21 5 -31 23 -31 13 0 18 -4 13 -12 -5 -7 -3 -8 5 -4
7 5 21 0 33 -11 12 -10 18 -12 14 -5 -10 17 2 15 20 -3 8 -8 21 -12 29 -9 8 4
15 1 15 -5 0 -6 5 -11 11 -11 5 0 7 5 4 10 -3 6 -1 10 4 10 6 0 11 -8 11 -17
0 -15 2 -16 10 -3 8 12 10 12 10 -5 0 -11 4 -15 8 -10 13 18 35 17 28 -1 -5
-14 -4 -15 9 -4 12 10 15 10 15 0 0 -7 6 -10 13 -7 7 3 21 -1 32 -9 10 -8 14
-14 9 -14 -6 0 -16 6 -24 13 -12 10 -12 9 -1 -6 9 -11 21 -15 34 -11 15 5 17
3 11 -7 -6 -10 -3 -10 11 1 13 10 16 11 11 2 -5 -9 -1 -15 13 -19 12 -3 21
-10 21 -17 0 -7 4 -6 9 2 7 11 9 11 14 -2 4 -9 1 -16 -5 -16 -6 0 -8 -3 -5 -6
4 -4 13 -1 22 6 10 8 15 9 15 1 0 -6 6 -10 13 -9 6 2 11 -3 9 -9 -1 -7 5 -13
14 -13 8 0 12 -4 9 -10 -3 -5 2 -10 12 -10 10 0 25 -9 33 -19 7 -11 18 -17 23
-14 6 3 7 1 3 -5 -4 -7 -21 -2 -50 13 -25 13 -82 36 -128 50 -273 88 -326 116
-442 230 -66 65 -79 82 -61 82 8 0 13 -2 11 -4z m1661 -88 c-4 -8 -2 -17 3
-20 6 -4 10 -13 10 -21 0 -8 -4 -12 -10 -9 -5 3 -10 1 -10 -4 0 -6 8 -11 18
-12 9 0 12 -3 5 -5 -8 -4 -9 -14 -3 -35 5 -16 5 -29 1 -29 -4 0 -5 -14 -3 -31
3 -21 1 -30 -6 -25 -6 3 -8 -1 -5 -12 5 -19 39 -27 48 -11 3 5 -2 6 -11 2 -12
-4 -15 -2 -12 8 3 8 11 13 17 12 11 -3 15 9 12 34 -1 6 2 14 7 17 9 5 8 -17
-2 -59 -16 -72 -95 -191 -137 -207 -20 -8 -27 6 -9 17 8 5 8 11 1 19 -6 7 -8
16 -5 19 3 3 6 21 6 40 0 30 3 34 22 30 17 -4 18 -3 6 6 -14 10 -13 12 9 15 5
0 13 5 18 10 4 5 3 6 -4 2 -8 -4 -11 1 -10 13 0 11 5 17 10 14 5 -3 6 4 2 17
-6 17 -4 21 6 14 12 -6 12 -5 0 9 -8 11 -9 17 -3 17 6 0 9 7 6 15 -4 8 -1 15
5 15 8 0 9 5 1 19 -5 11 -7 22 -2 25 4 2 7 27 6 55 0 28 4 51 9 51 5 0 7 -7 4
-15z m-417 -145 c-11 -7 -11 -10 -2 -10 18 0 31 -41 21 -68 -6 -16 -6 -21 2
-16 7 4 10 -4 9 -22 -1 -16 -1 -32 0 -36 1 -5 3 -20 4 -35 1 -16 5 -34 9 -40
5 -8 4 -13 -3 -13 -6 0 -8 -5 -4 -11 3 -6 0 -15 -7 -20 -10 -6 -11 -9 -1 -9
13 0 18 -30 5 -30 -5 0 -9 -17 -10 -37 -1 -20 -8 -40 -15 -44 -7 -5 -10 -9 -6
-9 4 0 -2 -24 -13 -52 -12 -29 -30 -82 -41 -118 -10 -36 -22 -72 -25 -80 -6
-16 -14 -61 -16 -97 -1 -13 -5 -23 -8 -23 -3 0 -4 -15 -2 -32 2 -18 0 -26 -4
-18 -3 8 -9 17 -12 20 -29 24 -81 166 -88 239 -4 45 -1 57 19 79 13 15 15 20
5 13 -15 -12 -17 -12 -11 5 4 10 11 24 16 31 6 7 6 18 2 25 -5 8 -1 8 11 -2
12 -10 16 -10 11 -2 -4 7 -1 24 9 39 9 14 12 23 7 19 -7 -4 -6 5 1 24 7 20 14
25 19 17 5 -7 8 -2 8 14 0 15 7 29 15 33 9 3 12 12 9 21 -4 10 3 27 17 42 13
14 18 23 12 19 -20 -11 -15 15 5 31 9 8 11 12 5 8 -21 -10 -15 9 7 23 20 12
17 47 -4 35 -6 -3 -3 3 7 14 10 11 17 24 16 29 -1 5 0 12 1 17 1 4 4 12 5 17
1 6 3 12 4 15 0 3 7 5 14 5 8 0 7 -4 -3 -10z m-1215 -70 c10 -11 16 -20 13
-20 -3 0 -13 9 -23 20 -10 11 -16 20 -13 20 3 0 13 -9 23 -20z m2275 0 c-8 -5
-22 -9 -30 -9 -10 0 -8 3 5 9 27 12 43 12 25 0z m-717 -25 c4 -8 3 -16 -1 -19
-4 -3 -9 4 -9 15 -2 23 3 25 10 4z m-896 -52 c-4 -3 1 -12 11 -20 15 -13 15
-13 -6 -3 -19 9 -23 30 -5 30 4 0 3 -3 0 -7z m-333 -51 c3 -5 -1 -9 -9 -9 -8
0 -12 4 -9 9 3 4 7 8 9 8 2 0 6 -4 9 -8z m1485 -214 c-11 -21 -25 -38 -31 -38
-6 0 -8 -3 -5 -6 14 -14 -74 -85 -178 -143 -61 -33 -116 -61 -122 -61 -7 0
-13 -3 -13 -7 0 -5 -12 -13 -26 -20 -25 -12 -26 -11 -10 6 9 10 13 21 9 25 -5
4 -1 6 7 4 8 -1 14 2 13 9 -2 8 4 10 14 6 12 -5 15 -2 10 10 -3 9 -3 16 1 16
20 -3 33 2 27 11 -3 6 1 7 9 4 10 -4 18 1 22 11 4 9 13 14 21 11 8 -3 12 -2 9
2 -2 4 -1 14 5 22 6 11 9 12 9 2 0 -7 5 -10 10 -7 6 4 7 11 4 17 -4 6 -2 8 4
4 6 -3 13 -2 17 4 3 5 1 10 -6 10 -7 0 -10 3 -6 6 3 3 14 1 23 -4 13 -7 21 -6
29 4 6 8 20 16 32 17 18 1 20 4 10 16 -10 12 -9 13 2 6 11 -6 13 -4 7 10 -5
15 -4 16 9 5 14 -11 19 -7 16 13 0 4 5 6 12 5 6 -2 11 3 9 10 -1 8 2 11 8 7 5
-3 10 -1 10 4 0 6 5 10 11 9 6 -2 14 3 17 11 3 10 0 11 -9 5 -11 -6 -12 -5 -2
7 7 9 19 16 27 16 12 0 11 -7 -5 -39z m-949 -302 c0 -8 11 -23 25 -34 13 -11
21 -23 17 -27 -4 -4 3 -5 16 -2 19 4 21 3 11 -9 -8 -10 -8 -14 0 -15 32 -4 62
-20 55 -30 -3 -5 0 -9 5 -9 6 0 11 -6 11 -14 0 -34 -70 16 -132 95 -28 35 -36
59 -18 59 6 0 10 -6 10 -14z m180 -272 c0 -3 -13 4 -30 16 -16 12 -30 24 -30
26 0 3 14 -4 30 -16 17 -12 30 -24 30 -26z"/>
<path d="M927 2019 c7 -7 15 -10 18 -7 3 3 -2 9 -12 12 -14 6 -15 5 -6 -5z"/>
<path d="M950 1761 c0 -5 5 -13 10 -16 6 -3 10 -2 10 4 0 5 -4 13 -10 16 -5 3
-10 2 -10 -4z"/>
<path d="M2316 1621 c-3 -5 1 -11 9 -14 9 -4 12 -1 8 9 -6 16 -10 17 -17 5z"/>
<path d="M1990 1040 c0 -5 5 -10 11 -10 5 0 7 5 4 10 -3 6 -8 10 -11 10 -2 0
-4 -4 -4 -10z"/>
<path d="M1654 3769 c-3 -6 -1 -16 5 -22 9 -9 11 -8 5 6 -5 13 -2 16 10 11 9
-3 16 -4 16 -1 0 11 -30 16 -36 6z"/>
<path d="M3186 3412 c-3 -5 1 -9 9 -9 8 0 12 4 9 9 -3 4 -7 8 -9 8 -2 0 -6 -4
-9 -8z"/>
<path d="M84 2248 c1 -20 5 -34 10 -31 4 3 5 -5 1 -17 -5 -17 -4 -21 6 -15 9
6 11 3 6 -9 -4 -9 0 -30 8 -47 9 -16 15 -30 14 -31 -2 -2 3 -13 9 -25 9 -16 9
-22 -1 -26 -9 -3 -9 -7 1 -20 8 -9 10 -22 6 -28 -4 -7 -3 -9 3 -6 6 4 13 0 17
-8 3 -8 0 -17 -6 -21 -7 -5 -5 -12 7 -21 11 -7 13 -13 7 -13 -7 0 -12 -5 -12
-11 0 -5 6 -7 13 -3 7 5 6 0 -3 -11 -8 -10 -10 -16 -4 -12 7 4 10 -41 9 -148
0 -85 3 -149 7 -142 5 7 8 -3 8 -23 -1 -48 5 -78 15 -87 4 -5 5 -2 0 6 -5 9
-4 12 3 7 6 -3 9 -15 7 -26 -2 -11 0 -20 5 -20 4 0 7 -11 5 -25 -1 -16 3 -25
12 -25 8 0 11 -4 8 -10 -3 -5 0 -10 7 -10 9 0 9 -3 -2 -10 -13 -8 -12 -10 3
-10 10 0 15 -4 12 -10 -3 -5 0 -10 7 -10 9 0 9 -3 -2 -10 -13 -8 -12 -10 4
-10 11 0 16 -3 13 -6 -9 -9 12 -46 35 -62 10 -7 18 -20 18 -28 0 -9 5 -12 12
-8 7 4 8 3 4 -4 -8 -13 40 -66 53 -58 4 3 13 -6 20 -20 6 -14 16 -22 21 -19 6
4 7 -1 3 -12 -6 -16 -5 -17 12 -3 10 8 16 11 14 5 -3 -5 2 -18 13 -28 17 -16
18 -16 18 0 0 15 2 15 9 4 5 -8 7 -21 4 -30 -4 -12 -3 -13 4 -3 11 15 46 5 36
-11 -4 -6 -1 -7 6 -3 7 5 19 0 27 -10 14 -18 15 -18 5 2 -12 24 3 46 25 37 27
-10 14 7 -18 23 -74 38 -187 184 -201 260 -2 10 -9 30 -14 44 -6 14 -10 39 -9
57 1 17 -1 30 -5 27 -3 -2 -7 11 -8 29 -2 18 -3 40 -4 50 -1 9 -4 17 -7 17 -5
0 -11 42 -14 97 0 17 -4 29 -8 26 -5 -2 -9 10 -9 26 -2 32 -2 36 -11 61 -24
72 -26 80 -15 80 9 0 9 3 0 8 -7 4 -14 17 -16 27 -2 11 -9 33 -15 48 -7 16
-12 33 -12 39 0 27 -94 199 -133 243 l-44 49 1 -36z m510 -1179 c-3 -5 -10 -9
-15 -9 -6 0 -7 5 -4 10 3 6 -1 10 -9 10 -9 0 -16 4 -16 10 0 6 10 5 25 -2 13
-6 22 -15 19 -19z"/>
<path d="M1939 1853 c-13 -17 -13 -17 6 -3 11 8 22 16 24 17 2 2 0 3 -6 3 -6
0 -17 -8 -24 -17z"/>
<path d="M3659 1783 c-13 -16 -12 -17 4 -4 9 7 17 15 17 17 0 8 -8 3 -21 -13z"/>
<path d="M316 1247 c3 -10 9 -15 12 -12 3 3 0 11 -7 18 -10 9 -11 8 -5 -6z"/>
<path d="M870 940 c0 -5 5 -10 11 -10 5 0 7 5 4 10 -3 6 -8 10 -11 10 -2 0 -4
-4 -4 -10z"/>
<path d="M1290 351 c0 -5 7 -12 16 -15 14 -5 15 -4 4 9 -14 17 -20 19 -20 6z"/>
</g>
</svg>
